<svg width="114" height="114" viewBox="0 0 114 114" fill="none" xmlns="http://www.w3.org/2000/svg">
<path d="M31.6867 50.7626H36.7761V57.1475H43.0295V62.2336H36.7761V68.6182H31.6867V62.2336H25.1737V57.1475H31.6867V50.7626Z" fill="#E74C3C"/>
<path d="M94.5006 83.8771C88.9783 83.8771 84.5024 88.353 84.5024 93.8748C84.5024 99.3977 88.978 103.874 94.5006 103.874C100.022 103.874 104.499 99.3977 104.499 93.8748C104.499 88.353 100.022 83.8771 94.5006 83.8771Z" fill="#E74C3C"/>
<path d="M24.1028 83.8771C18.5807 83.8771 14.1051 88.353 14.1051 93.8748C14.1051 99.3977 18.5807 103.874 24.1028 103.874C29.6234 103.874 34.1015 99.3977 34.1015 93.8748C34.1015 88.353 29.6237 83.8771 24.1028 83.8771Z" fill="#E74C3C"/>
<path d="M84.0468 17.2774C84.6015 17.0272 85.2526 17.2734 85.5033 17.8258C85.7551 18.3782 85.5083 19.0327 84.9548 19.2812L75.6932 23.482C75.5449 23.5473 75.3909 23.5809 75.2392 23.5809C74.82 23.5809 74.4207 23.3409 74.2351 22.9335C73.9838 22.3811 74.2289 21.7272 74.7836 21.4784L84.0468 17.2774Z" fill="#E74C3C"/>
<path d="M68.8265 19.8271C68.5601 19.8271 68.2934 19.7326 68.0825 19.5372C67.6336 19.1253 67.6044 18.4321 68.0138 17.9826L74.8867 10.4848C75.2961 10.0386 75.9934 10.0033 76.4429 10.4189C76.8927 10.8308 76.9199 11.524 76.5105 11.9729L69.6391 19.4704C69.4209 19.7068 69.1231 19.8271 68.8265 19.8271Z" fill="#E74C3C"/>
<path d="M56.0859 10.4166C56.5376 10.003 57.23 10.0364 57.6419 10.4822L64.5122 17.9809C64.9218 18.4298 64.8927 19.1255 64.4437 19.5349C64.2331 19.7304 63.9662 19.8249 63.6998 19.8249C63.4031 19.8249 63.1053 19.7046 62.8875 19.4682L56.0175 11.9715C55.605 11.5217 55.6353 10.8285 56.0859 10.4166Z" fill="#E74C3C"/>
<path d="M59.3016 23.5809C59.1499 23.5809 58.9949 23.5473 58.8477 23.482L49.5855 19.2812C49.0314 19.0327 48.7863 18.3782 49.0359 17.8258C49.2888 17.2734 49.9385 17.0275 50.4935 17.2774L59.7573 21.4784C60.3119 21.7274 60.5556 22.3814 60.3052 22.9335C60.1185 23.3409 59.7194 23.5809 59.3016 23.5809Z" fill="#E74C3C"/>
<path d="M8.80762 28.7775H60.4611C61.4689 25.7648 64.2833 23.5784 67.6376 23.5784C70.9901 23.5784 73.8051 25.7645 74.8135 28.7775C74.8135 28.7775 76.4665 28.7775 78.5076 28.7775C80.5478 28.7775 82.2006 31.6441 82.2006 35.177V41.5781C82.2006 41.5781 84.1267 41.5781 86.5023 41.5781C88.8779 41.5781 93.3816 44.5583 96.5651 48.2356L108.236 61.7196C111.42 65.3977 114 72.3176 114 77.1813V81.1659C114 86.0293 112.175 89.9713 109.923 89.9713H105.846C104.319 85.1065 99.771 81.575 94.3986 81.575C89.0277 81.575 84.4823 85.1067 82.9523 89.9713H82.1989H76.1993H35.4489C33.9182 85.1065 29.3716 81.575 23.9993 81.575C18.6281 81.575 14.0815 85.1067 12.5522 89.9713C12.5522 89.9713 9.74278 89.9713 6.27721 89.9713C2.80829 89.9713 0 86.029 0 81.1659V37.5787C0.00252533 32.7203 3.94562 28.7775 8.80762 28.7775ZM81.8607 59.9959C81.8607 62.4242 83.8328 64.3986 86.2634 64.3986H96.1688C98.5994 64.3986 99.2152 62.9679 97.5403 61.2039L90.6678 53.9559C88.9951 52.191 86.3447 50.7623 84.7486 50.7623C83.1526 50.7623 81.8607 52.735 81.8607 55.165V59.9959ZM18.5863 61.9784H18.5815L33.8666 76.9743L49.6177 61.9784H49.6132C52.0101 59.9398 53.5406 56.9069 53.5406 53.5123C53.5406 47.377 48.567 42.4036 42.4317 42.4036C39.1119 42.4036 36.1387 43.8696 34.1038 46.1816C32.0652 43.8696 29.0943 42.4036 25.7737 42.4036C19.6359 42.4036 14.6659 47.3767 14.6659 53.5123C14.6634 56.9094 16.1916 59.9421 18.5863 61.9784Z" fill="#E74C3C"/>
</svg>
