<svg width="144" height="144" viewBox="0 0 144 144" fill="none" xmlns="http://www.w3.org/2000/svg">
<path d="M126 81.6V27C126 22.2 121.8 18 117 18H102V9C102 4.2 97.8 0 93 0H87C82.2 0 78 4.2 78 9V18H48V9C48 4.2 43.8 0 39 0H33C28.2 0 24 4.2 24 9V18H9C4.2 18 0 22.2 0 27V123C0 127.8 4.2 132 9 132H85.8C91.8 139.2 100.8 144 111 144C129 144 144 129 144 111C144 98.4 136.8 87 126 81.6ZM81.6 96H66V72H90V85.8C86.4 88.2 84 91.8 81.6 96ZM36 96V72H60V96H36ZM60 102V126H36V102H60ZM90 42V66H66V42H90ZM60 66H36V42H60V66ZM30 66H6V42H30V66ZM30 72V96H6V72H30ZM96 72H120V79.2C117 78.6 114 78 111 78C105.6 78 100.8 79.2 96 81.6V72ZM120 66H96V42H120V66ZM84 9C84 7.2 85.2 6 87 6H93C94.8 6 96 7.2 96 9V21C96 22.8 94.8 24 93 24H87C85.2 24 84 22.8 84 21V9ZM30 9C30 7.2 31.2 6 33 6H39C40.8 6 42 7.2 42 9V21C42 22.8 40.8 24 39 24H33C31.2 24 30 22.8 30 21V9ZM9 24H24.6C25.8 27.6 29.4 30 33 30H39C43.2 30 46.2 27.6 47.4 24H78.6C79.8 27.6 83.4 30 87 30H93C97.2 30 100.2 27.6 101.4 24H117C118.8 24 120 25.2 120 27V36H6V27C6 25.2 7.2 24 9 24ZM6 123V102H30V126H9C7.2 126 6 124.8 6 123ZM66 126V102H79.2C78.6 105 78 108 78 111C78 116.4 79.2 121.2 81.6 126H66ZM111 138C96 138 84 126 84 111C84 96 96 84 111 84C126 84 138 96 138 111C138 126 126 138 111 138Z" fill="#00CEC9"/>
<path d="M108.962 124.954C108.454 124.954 107.438 124.446 106.929 124.446L96.7625 114.279C95.7458 113.262 95.7458 111.738 96.7625 110.721C97.7792 109.704 99.3042 109.704 100.321 110.721L108.454 118.854L122.179 101.062C123.196 100.046 124.721 99.5375 125.737 100.554C126.754 101.571 127.262 103.096 126.246 104.112L110.996 124.446C110.487 124.446 109.979 124.954 108.962 124.954Z" fill="#00CEC9"/>
</svg>
