<svg width="149" height="149" viewBox="0 0 149 149" fill="none" xmlns="http://www.w3.org/2000/svg">
<path d="M52.7709 55.875C50.9084 55.875 49.6667 57.1167 49.6667 58.9792V62.0833C39.1126 62.0833 31.0417 70.1542 31.0417 80.7083C31.0417 91.2625 39.1126 99.3333 49.6667 99.3333C60.2209 99.3333 68.2917 91.2625 68.2917 80.7083H71.3959C73.2584 80.7083 74.5001 79.4667 74.5001 77.6042C74.5001 65.8083 64.5667 55.875 52.7709 55.875ZM55.8751 62.7042C62.0834 63.9458 67.0501 68.9125 67.6709 74.5H55.8751V62.7042ZM49.6667 93.125C42.8376 93.125 37.2501 87.5375 37.2501 80.7083C37.2501 73.8792 42.8376 68.2917 49.6667 68.2917V77.6042C49.6667 79.4667 50.9084 80.7083 52.7709 80.7083H62.0834C62.0834 87.5375 56.4959 93.125 49.6667 93.125Z" fill="#00CEC9"/>
<path d="M108.646 136.583H40.3542C35.3876 136.583 31.0417 132.237 31.0417 127.271V114.854C31.0417 109.887 35.3876 105.542 40.3542 105.542H108.646C113.613 105.542 117.958 109.887 117.958 114.854V127.271C117.958 132.237 113.613 136.583 108.646 136.583ZM40.3542 111.75C38.4917 111.75 37.2501 112.992 37.2501 114.854V127.271C37.2501 129.133 38.4917 130.375 40.3542 130.375H108.646C110.508 130.375 111.75 129.133 111.75 127.271V114.854C111.75 112.992 110.508 111.75 108.646 111.75H40.3542Z" fill="#00CEC9"/>
<path d="M114.854 99.3333H77.6042C75.7417 99.3333 74.5 98.0917 74.5 96.2292C74.5 94.3667 75.7417 93.125 77.6042 93.125H114.854C116.717 93.125 117.958 94.3667 117.958 96.2292C117.958 98.0917 116.717 99.3333 114.854 99.3333Z" fill="#00CEC9"/>
<path d="M114.854 86.9167H83.8124C81.9499 86.9167 80.7083 85.675 80.7083 83.8125C80.7083 81.95 81.9499 80.7084 83.8124 80.7084H114.854C116.717 80.7084 117.958 81.95 117.958 83.8125C117.958 85.675 116.717 86.9167 114.854 86.9167Z" fill="#00CEC9"/>
<path d="M114.854 74.5H83.8124C81.9499 74.5 80.7083 73.2583 80.7083 71.3958C80.7083 69.5333 81.9499 68.2916 83.8124 68.2916H114.854C116.717 68.2916 117.958 69.5333 117.958 71.3958C117.958 73.2583 116.717 74.5 114.854 74.5Z" fill="#00CEC9"/>
<path d="M114.854 62.0833H77.6042C75.7417 62.0833 74.5 60.8417 74.5 58.9792C74.5 57.1167 75.7417 55.875 77.6042 55.875H114.854C116.717 55.875 117.958 57.1167 117.958 58.9792C117.958 60.8417 116.717 62.0833 114.854 62.0833Z" fill="#00CEC9"/>
<path d="M114.854 49.6667H77.6042C75.7417 49.6667 74.5 48.425 74.5 46.5625C74.5 44.7 75.7417 43.4584 77.6042 43.4584H114.854C116.717 43.4584 117.958 44.7 117.958 46.5625C117.958 48.425 116.717 49.6667 114.854 49.6667Z" fill="#00CEC9"/>
<path d="M121.063 0H67.6708C65.1875 0 62.7042 1.24167 60.8417 2.48333L21.1083 42.8375C19.8667 44.0792 18.625 46.5625 18.625 49.0458V139.688C18.625 144.654 22.9708 149 27.9375 149H121.063C126.029 149 130.375 144.654 130.375 139.688V9.3125C130.375 4.34583 126.029 0 121.063 0ZM68.2917 18.625H108.646C110.508 18.625 111.75 19.8667 111.75 21.7292V27.9375C111.75 29.8 110.508 31.0417 108.646 31.0417H68.2917V18.625ZM62.0833 10.5542V40.3542C62.0833 42.2167 60.8417 43.4583 58.9792 43.4583H29.1792L62.0833 10.5542ZM124.167 139.688C124.167 141.55 122.925 142.792 121.063 142.792H27.9375C26.075 142.792 24.8333 141.55 24.8333 139.688V49.6667H58.9792C63.9458 49.6667 68.2917 45.3208 68.2917 40.3542V37.25H108.646C113.613 37.25 117.958 32.9042 117.958 27.9375V21.7292C117.958 16.7625 113.613 12.4167 108.646 12.4167H68.2917V6.20833H121.063C122.925 6.20833 124.167 7.45 124.167 9.3125V139.688Z" fill="#00CEC9"/>
</svg>
