<svg width="149" height="149" viewBox="0 0 149 149" fill="none" xmlns="http://www.w3.org/2000/svg">
<path d="M146.669 129.754L124.296 107.404C120.567 103.679 114.974 103.679 111.867 107.404L103.166 98.7125C112.488 88.1583 118.081 74.5 118.081 59.6C118.081 26.6958 91.3577 0 59.0407 0C26.7237 0 0 26.6958 0 58.9792C0 91.2625 26.7237 117.958 59.0407 117.958C73.9562 117.958 88.2503 112.371 98.194 103.058L106.895 111.75C103.787 115.475 103.787 121.062 106.895 124.167L129.268 146.517C131.132 148.379 133.618 149 136.104 149C138.59 149 141.076 148.379 142.941 146.517L146.669 142.792C149.777 139.067 149.777 132.858 146.669 129.754ZM36.0459 11.7958L49.097 22.9708L44.1251 32.9042C43.5036 33.525 43.5037 34.7667 43.5037 35.3875C43.5037 36.0083 44.7466 36.6292 45.3681 37.25L60.9051 42.2167L56.5547 54.6333L47.854 50.2875C47.2325 49.6667 45.9896 49.6667 45.3681 49.6667C44.7466 49.6667 44.1251 50.9083 43.5037 51.5292L37.9103 68.2917H31.074C29.8311 68.2917 29.2096 68.9125 28.5881 69.5333C27.9666 70.1542 27.9666 71.3958 27.9666 72.0167L30.4526 82.5708L27.9666 85.0542L18.0229 75.1208C17.4015 75.1208 16.1585 74.5 15.537 74.5H8.70073C6.83629 69.5333 6.21481 64.5667 6.21481 58.9792C6.21481 38.4917 18.6444 20.4875 36.0459 11.7958ZM11.1867 80.7083H14.2941L26.1022 92.5042C26.1022 93.125 27.3451 93.125 27.9666 93.125C28.5881 93.125 29.8311 93.125 30.4526 92.5042L36.6674 86.2958C37.2888 85.0542 37.2888 83.8125 37.2888 83.1917L34.8029 74.5H40.3962C41.6392 74.5 42.8822 73.8792 43.5037 72.6375L48.4755 57.1167L57.7977 61.4625C58.4192 62.0833 59.6621 62.0833 60.2836 62.0833C60.9051 61.4625 61.5266 60.8417 62.1481 60.2208L68.3629 41.5958C68.9844 39.7333 67.7414 38.4917 66.4984 37.8708L50.9614 32.2833L55.3118 22.9708C56.5547 21.7292 55.9333 20.4875 54.6903 19.2458L42.2607 8.69167C47.854 7.45 53.4473 6.20833 59.0407 6.20833C84.5214 6.20833 105.652 24.2125 110.624 48.425L95.0865 56.4958C93.8436 56.4958 93.2221 57.7375 93.2221 58.9792V63.9458L88.8717 68.2917H77.6851C76.4421 68.2917 75.1992 68.9125 75.1992 70.1542L68.9844 82.5708C68.3629 83.8125 68.3629 85.0542 69.6058 86.2958L75.8206 92.5042C76.4421 93.125 77.0636 93.125 78.3066 93.125H82.0355L85.7643 104.3C77.6851 108.646 68.9844 111.75 59.0407 111.75C37.9103 111.75 19.2659 98.7125 11.1867 80.7083ZM90.7362 101.196L87.0073 88.7792C86.3858 87.5375 85.1429 86.9167 83.8999 86.9167H78.928L75.1992 83.1917L79.5495 74.5H90.1147C90.7362 74.5 91.9791 73.8792 92.6006 73.8792L98.8154 67.6708C99.4369 67.05 99.4369 66.4292 99.4369 65.1875V60.8417L111.867 54.6333C111.867 55.875 111.867 57.1167 111.867 58.9792C111.867 76.3625 103.787 91.2625 90.7362 101.196ZM142.319 138.446L138.59 142.171C137.347 143.413 135.483 143.413 134.24 142.171L111.867 119.821C110.624 118.579 110.624 116.717 111.867 115.475L115.595 111.75C116.217 111.129 116.838 111.129 118.081 111.129C119.324 111.129 119.946 111.129 120.567 111.75L142.941 134.1C142.941 135.342 142.941 137.204 142.319 138.446Z" fill="white"/>
</svg>
