<svg width="104" height="104" viewBox="0 0 104 104" fill="none" xmlns="http://www.w3.org/2000/svg">
<path fill-rule="evenodd" clip-rule="evenodd" d="M72.8814 0.310343C78.3744 0.56128 82.1261 1.4329 85.4088 2.7091C88.8021 4.02729 91.6802 5.79204 94.5491 8.66092C97.418 11.5298 99.1827 14.4079 100.501 17.8012C101.777 21.0839 102.65 24.8356 102.9 30.3286C103.151 35.8328 103.21 37.5894 103.21 51.605C103.21 65.6196 103.151 67.3772 102.9 72.8814C102.65 78.3744 101.777 82.1261 100.501 85.4078C99.1827 88.8021 97.418 91.6792 94.5491 94.548C91.6802 97.418 88.8021 99.1817 85.4088 100.501C82.1261 101.776 78.3744 102.649 72.8814 102.9C67.3772 103.151 65.6206 103.21 51.605 103.21C37.5904 103.21 35.8328 103.151 30.3286 102.9C24.8356 102.649 21.0849 101.776 17.8012 100.501C14.4089 99.1817 11.5308 97.418 8.66195 94.548C5.79204 91.6792 4.02831 88.8011 2.7091 85.4078C1.4329 82.1261 0.56128 78.3744 0.310343 72.8814C0.0594056 67.3772 0 65.6196 0 51.605C0 37.5894 0.0594056 35.8328 0.310343 30.3286C0.56128 24.8356 1.4329 21.0839 2.7091 17.8012C4.02831 14.4079 5.79204 11.5298 8.66195 8.66092C11.5308 5.79204 14.4089 4.02729 17.8012 2.7091C21.0849 1.4329 24.8356 0.56128 30.3286 0.310343C35.8328 0.0594056 37.5904 0 51.605 0C65.6206 0 67.3772 0.0594056 72.8814 0.310343ZM30.7526 9.59912C25.7206 9.82855 22.9879 10.6694 21.1699 11.3762C18.7609 12.3123 17.0422 13.4298 15.2365 15.2365C13.4308 17.0422 12.3123 18.7609 11.3762 21.1699C10.6694 22.9879 9.82855 25.7206 9.59912 30.7516C9.35126 36.1934 9.29799 37.826 9.29799 51.605C9.29799 65.384 9.35126 67.0166 9.59912 72.4574C9.82855 77.4894 10.6694 80.2221 11.3762 82.0401C12.3123 84.4491 13.4308 86.1678 15.2365 87.9735C17.0422 89.7792 18.7609 90.8977 21.1699 91.8338C22.9879 92.5406 25.7206 93.3814 30.7526 93.6109C36.1934 93.8587 37.825 93.912 51.605 93.912C65.385 93.912 67.0177 93.8587 72.4574 93.6109C77.4894 93.3814 80.2221 92.5406 82.0401 91.8338C84.4491 90.8977 86.1688 89.7792 87.9745 87.9735C89.7792 86.1678 90.8977 84.4491 91.8338 82.0401C92.5406 80.2221 93.3814 77.4894 93.6109 72.4574C93.8598 67.0166 93.912 65.384 93.912 51.605C93.912 37.826 93.8598 36.1934 93.6109 30.7516C93.3814 25.7206 92.5406 22.9879 91.8338 21.1699C90.8977 18.7609 89.7792 17.0422 87.9745 15.2355C86.1688 13.4298 84.4491 12.3123 82.0401 11.3762C80.2221 10.6694 77.4894 9.82855 72.4574 9.59912C67.0166 9.35023 65.384 9.29799 51.605 9.29799C37.826 9.29799 36.1944 9.35023 30.7526 9.59912Z" fill="#00CEC9"/>
<path fill-rule="evenodd" clip-rule="evenodd" d="M78.105 51.6049C78.105 66.2401 66.2403 78.1049 51.605 78.1049C36.9697 78.1049 25.105 66.2401 25.105 51.6049C25.105 36.9696 36.9697 25.1049 51.605 25.1049C66.2403 25.1049 78.105 36.9696 78.105 51.6049ZM68.807 51.6049C68.807 42.1041 61.1058 34.4028 51.605 34.4028C42.1052 34.4028 34.403 42.1041 34.403 51.6049C34.403 61.1046 42.1052 68.8069 51.605 68.8069C61.1058 68.8069 68.807 61.1046 68.807 51.6049ZM85.3443 24.0581C85.3443 27.478 82.5727 30.2506 79.1518 30.2506C75.7318 30.2506 72.9592 27.478 72.9592 24.0581C72.9592 20.6382 75.7318 17.8656 79.1518 17.8656C82.5727 17.8656 85.3443 20.6382 85.3443 24.0581Z" fill="#00CEC9"/>
</svg>
