<svg width="84" height="85" viewBox="0 0 84 85" fill="none" xmlns="http://www.w3.org/2000/svg">
<path fill-rule="evenodd" clip-rule="evenodd" d="M59.1917 1.08592C63.6335 1.28883 66.6674 1.99366 69.3219 3.02565C72.0658 4.09159 74.3932 5.51864 76.7131 7.83853C79.0329 10.1584 80.46 12.4858 81.5259 15.2297C82.5579 17.8842 83.2636 20.918 83.4657 25.3599C83.6686 29.8108 83.7166 31.2312 83.7166 42.5648C83.7166 53.8976 83.6686 55.3188 83.4657 59.7698C83.2636 64.2116 82.5579 67.2454 81.5259 69.8991C80.46 72.6439 79.0329 74.9704 76.7131 77.2903C74.3932 79.611 72.0658 81.0372 69.3219 82.104C66.6674 83.1352 63.6335 83.8408 59.1917 84.0437C54.7408 84.2467 53.3203 84.2947 41.9867 84.2947C30.654 84.2947 29.2327 84.2467 24.7818 84.0437C20.34 83.8408 17.307 83.1352 14.6516 82.104C11.9085 81.0372 9.58117 79.611 7.26128 77.2903C4.94056 74.9704 3.51434 72.6431 2.44757 69.8991C1.41558 67.2454 0.710755 64.2116 0.507837 59.7698C0.304919 55.3188 0.256882 53.8976 0.256882 42.5648C0.256882 31.2312 0.304919 29.8108 0.507837 25.3599C0.710755 20.918 1.41558 17.8842 2.44757 15.2297C3.51434 12.4858 4.94056 10.1584 7.26128 7.83853C9.58117 5.51864 11.9085 4.09159 14.6516 3.02565C17.307 1.99366 20.34 1.28883 24.7818 1.08592C29.2327 0.882999 30.654 0.834961 41.9867 0.834961C53.3203 0.834961 54.7408 0.882999 59.1917 1.08592ZM25.1247 8.59719C21.0556 8.78272 18.8458 9.4627 17.3757 10.0342C15.4277 10.7912 14.0379 11.6948 12.5777 13.1558C11.1175 14.616 10.2131 16.0058 9.4561 17.9538C8.88462 19.4239 8.20464 21.6336 8.01911 25.7019C7.81868 30.1024 7.77561 31.4226 7.77561 42.5648C7.77561 53.7071 7.81868 55.0273 8.01911 59.4269C8.20464 63.496 8.88462 65.7058 9.4561 67.1759C10.2131 69.1239 11.1175 70.5137 12.5777 71.9738C14.0379 73.434 15.4277 74.3385 17.3757 75.0955C18.8458 75.667 21.0556 76.3469 25.1247 76.5325C29.5243 76.7329 30.8437 76.776 41.9867 76.776C53.1298 76.776 54.4501 76.7329 58.8488 76.5325C62.9179 76.3469 65.1277 75.667 66.5978 75.0955C68.5458 74.3385 69.9364 73.434 71.3966 71.9738C72.8559 70.5137 73.7604 69.1239 74.5174 67.1759C75.0889 65.7058 75.7689 63.496 75.9544 59.4269C76.1556 55.0273 76.1979 53.7071 76.1979 42.5648C76.1979 31.4226 76.1556 30.1024 75.9544 25.7019C75.7689 21.6336 75.0889 19.4239 74.5174 17.9538C73.7604 16.0058 72.8559 14.616 71.3966 13.155C69.9364 11.6948 68.5458 10.7912 66.5978 10.0342C65.1277 9.4627 62.9179 8.78272 58.8488 8.59719C54.4492 8.39593 53.129 8.35369 41.9867 8.35369C30.8445 8.35369 29.5251 8.39593 25.1247 8.59719Z" fill="white"/>
<path fill-rule="evenodd" clip-rule="evenodd" d="M63.4157 42.5647C63.4157 54.3993 53.8214 63.9936 41.9868 63.9936C30.1521 63.9936 20.5578 54.3993 20.5578 42.5647C20.5578 30.73 30.1521 21.1357 41.9868 21.1357C53.8214 21.1357 63.4157 30.73 63.4157 42.5647ZM55.897 42.5647C55.897 34.882 49.6695 28.6544 41.9868 28.6544C34.3049 28.6544 28.0765 34.882 28.0765 42.5647C28.0765 50.2466 34.3049 56.4749 41.9868 56.4749C49.6695 56.4749 55.897 50.2466 55.897 42.5647ZM69.2697 20.2893C69.2697 23.0547 67.0285 25.2968 64.2622 25.2968C61.4967 25.2968 59.2547 23.0547 59.2547 20.2893C59.2547 17.5238 61.4967 15.2817 64.2622 15.2817C67.0285 15.2817 69.2697 17.5238 69.2697 20.2893Z" fill="white"/>
</svg>
