<svg width="129" height="129" viewBox="0 0 129 129" fill="none" xmlns="http://www.w3.org/2000/svg">
<circle cx="64.5" cy="64.5" r="63" stroke="#00CEC9" stroke-width="3"/>
<path d="M46.32 49.048C46.656 44.632 48.36 41.176 51.432 38.68C54.504 36.184 58.488 34.936 63.384 34.936C66.648 34.936 69.456 35.536 71.808 36.736C74.208 37.888 76.008 39.472 77.208 41.488C78.456 43.504 79.08 45.784 79.08 48.328C79.08 51.304 78.216 53.872 76.488 56.032C74.808 58.192 72.6 59.584 69.864 60.208V60.568C72.984 61.336 75.456 62.848 77.28 65.104C79.104 67.36 80.016 70.312 80.016 73.96C80.016 76.696 79.392 79.168 78.144 81.376C76.896 83.536 75.024 85.24 72.528 86.488C70.032 87.736 67.032 88.36 63.528 88.36C58.44 88.36 54.264 87.04 51 84.4C47.736 81.712 45.912 77.92 45.528 73.024H51.864C52.2 75.904 53.376 78.256 55.392 80.08C57.408 81.904 60.096 82.816 63.456 82.816C66.816 82.816 69.36 81.952 71.088 80.224C72.864 78.448 73.752 76.168 73.752 73.384C73.752 69.784 72.552 67.192 70.152 65.608C67.752 64.024 64.128 63.232 59.28 63.232H57.624V57.76H59.352C63.768 57.712 67.104 56.992 69.36 55.6C71.616 54.16 72.744 51.952 72.744 48.976C72.744 46.432 71.904 44.392 70.224 42.856C68.592 41.32 66.24 40.552 63.168 40.552C60.192 40.552 57.792 41.32 55.968 42.856C54.144 44.392 53.064 46.456 52.728 49.048H46.32Z" fill="#00CEC9"/>
</svg>
