<svg width="144" height="144" viewBox="0 0 144 144" fill="none" xmlns="http://www.w3.org/2000/svg">
<g clip-path="url(#clip0)">
<path d="M33 30H15C13.2 30 12 28.8 12 27C12 25.2 13.2 24 15 24H33C34.8 24 36 25.2 36 27C36 28.8 34.8 30 33 30Z" fill="#00CEC9"/>
<path d="M27 114H15C13.2 114 12 112.8 12 111C12 109.2 13.2 108 15 108H27C28.8 108 30 109.2 30 111C30 112.8 28.8 114 27 114Z" fill="#00CEC9"/>
<path d="M63 114H39C37.2 114 36 112.8 36 111C36 109.2 37.2 108 39 108H63C64.8 108 66 109.2 66 111C66 112.8 64.8 114 63 114Z" fill="#00CEC9"/>
<path d="M63 30H45C43.2 30 42 28.8 42 27C42 25.2 43.2 24 45 24H63C64.8 24 66 25.2 66 27C66 28.8 64.8 30 63 30Z" fill="#00CEC9"/>
<path d="M63 42H57C55.2 42 54 40.8 54 39C54 37.2 55.2 36 57 36H63C64.8 36 66 37.2 66 39C66 40.8 64.8 42 63 42Z" fill="#00CEC9"/>
<path d="M63 54H57C55.2 54 54 52.8 54 51C54 49.2 55.2 48 57 48H63C64.8 48 66 49.2 66 51C66 52.8 64.8 54 63 54Z" fill="#00CEC9"/>
<path d="M63 66H57C55.2 66 54 64.8 54 63C54 61.2 55.2 60 57 60H63C64.8 60 66 61.2 66 63C66 64.8 64.8 66 63 66Z" fill="#00CEC9"/>
<path d="M63 78H57C55.2 78 54 76.8 54 75C54 73.2 55.2 72 57 72H63C64.8 72 66 73.2 66 75C66 76.8 64.8 78 63 78Z" fill="#00CEC9"/>
<path d="M63 90H57C55.2 90 54 88.8 54 87C54 85.2 55.2 84 57 84H63C64.8 84 66 85.2 66 87C66 88.8 64.8 90 63 90Z" fill="#00CEC9"/>
<path d="M63 102H57C55.2 102 54 100.8 54 99C54 97.2 55.2 96 57 96H63C64.8 96 66 97.2 66 99C66 100.8 64.8 102 63 102Z" fill="#00CEC9"/>
<path d="M45 42H15C13.2 42 12 40.8 12 39C12 37.2 13.2 36 15 36H45C46.8 36 48 37.2 48 39C48 40.8 46.8 42 45 42Z" fill="#00CEC9"/>
<path d="M39 102H21C16.2 102 12 97.8 12 93V57C12 52.2 16.2 48 21 48H39C43.8 48 48 52.2 48 57V93C48 97.8 43.8 102 39 102ZM21 54C19.2 54 18 55.2 18 57V93C18 94.8 19.2 96 21 96H39C40.8 96 42 94.8 42 93V57C42 55.2 40.8 54 39 54H21Z" fill="#00CEC9"/>
<path d="M139.8 87.6L131.4 82.8C130.2 82.2 129.6 81 130.2 79.8C130.8 77.4 130.8 74.4 130.8 72C130.8 69.6 130.8 66.6 130.2 64.2C130.2 63 130.8 61.8 131.4 61.2L140.4 56.4C144.6 54 146.4 48.6 144 44.4L135 28.8C133.8 26.4 132 25.2 129.6 24.6C127.2 24 124.8 24 123 25.8L112.8 30C111.6 30.6 110.4 30.6 109.2 29.4C105 26.4 100.8 23.4 96 21.6C94.8 21 94.2 19.8 94.2 18.6V9C94.2 4.2 90 0 85.2 0H9C4.2 0 0 4.2 0 9V135C0 139.8 4.2 144 9 144H85.2C90 144 94.2 139.8 94.2 135V124.8C94.2 123.6 94.8 122.4 96 121.8C100.8 120 105 117.6 109.2 114C110.4 113.4 111.6 112.8 112.8 113.4L121.2 118.2C123 119.4 126 120 127.8 119.4C129.6 118.8 132 117 133.2 115.2L142.2 99.6C145.2 96 144 90.6 139.8 87.6ZM78 39C95.4 40.2 109.2 54.6 109.2 72C109.2 89.4 95.4 103.8 78 105V39ZM36 6H60V9C60 10.8 58.8 12 57 12H39C37.2 12 36 10.8 36 9V6ZM9 6H30V9C30 13.8 34.2 18 39 18H57C61.8 18 66 13.8 66 9V6H72V120H6V9C6 7.2 7.2 6 9 6ZM9 138C7.2 138 6 136.8 6 135V126H72V138H9ZM137.4 97.2L128.4 112.8C127.8 113.4 127.2 114 126.6 114C126 114 124.8 114 124.2 113.4L115.2 108.6C112.2 106.8 108 107.4 105 109.2C101.4 112.2 97.2 114.6 93 115.8C89.4 117 87 120.6 87 124.2V134.4C87 136.2 85.8 137.4 84 137.4H78V110.4C98.4 109.2 115.2 92.4 115.2 71.4C115.2 50.4 98.4 34.2 78 33V6H85.2C87 6 88.2 7.2 88.2 9V19.2C88.2 22.8 90.6 26.4 94.2 27.6C98.4 29.4 102.6 31.8 106.2 34.2C109.2 36.6 113.4 37.2 116.4 34.8L124.8 30C125.4 29.4 126 29.4 126.6 30C127.2 30 127.8 30.6 128.4 31.2L137.4 46.8C138.6 48 138 49.8 136.2 51L127.2 55.8C124.2 57.6 122.4 61.2 123 64.8C123.6 67.2 123.6 69.6 123.6 72C123.6 74.4 123.6 76.8 123 79.2C122.4 82.8 124.2 86.4 127.2 88.2L135.6 93C138 94.2 138.6 96 137.4 97.2Z" fill="#00CEC9"/>
</g>
<defs>
<clipPath id="clip0">
<rect width="144" height="144" fill="white"/>
</clipPath>
</defs>
</svg>
