<svg width="129" height="129" viewBox="0 0 129 129" fill="none" xmlns="http://www.w3.org/2000/svg">
<circle cx="64.5" cy="64.5" r="63" stroke="#00CEC9" stroke-width="3"/>
<path d="M45.672 82.744C51.768 77.848 56.544 73.84 60 70.72C63.456 67.552 66.36 64.264 68.712 60.856C71.112 57.4 72.312 54.016 72.312 50.704C72.312 47.584 71.544 45.136 70.008 43.36C68.52 41.536 66.096 40.624 62.736 40.624C59.472 40.624 56.928 41.656 55.104 43.72C53.328 45.736 52.368 48.448 52.224 51.856H45.888C46.08 46.48 47.712 42.328 50.784 39.4C53.856 36.472 57.816 35.008 62.664 35.008C67.608 35.008 71.52 36.376 74.4 39.112C77.328 41.848 78.792 45.616 78.792 50.416C78.792 54.4 77.592 58.288 75.192 62.08C72.84 65.824 70.152 69.136 67.128 72.016C64.104 74.848 60.24 78.16 55.536 81.952H80.304V87.424H45.672V82.744Z" fill="#00CEC9"/>
</svg>
