<svg width="257" height="33" viewBox="0 0 257 33" fill="none" xmlns="http://www.w3.org/2000/svg">
<path d="M15.0684 12.4707C15.0684 9.78711 14.1133 8.10547 12.2031 7.42578C11.5469 7.19141 10.7793 7.07422 9.90039 7.07422C9.02148 7.07422 8.26562 7.17383 7.63281 7.37305C7 7.57227 6.47266 7.8418 6.05078 8.18164C5.19531 8.87305 4.76758 9.78711 4.76758 10.9238C4.76758 12.6465 6.0332 14.1172 8.56445 15.3359L10.7617 16.373C11.8281 16.8652 12.8535 17.3691 13.8379 17.8848C14.834 18.3887 15.7129 18.9688 16.4746 19.625C18.1504 21.0547 18.9883 22.8242 18.9883 24.9336C18.9883 27.1953 18.0039 29.0176 16.0352 30.4004C14.1953 31.6895 11.8867 32.334 9.10938 32.334C6.90625 32.334 4.96094 31.9883 3.27344 31.2969C2.03125 30.8047 1.14648 30.1074 0.619141 29.2051C0.349609 28.748 0.214844 28.1914 0.214844 27.5352C0.214844 26.2227 0.542969 24.998 1.19922 23.8613C1.42188 23.5918 1.72656 23.457 2.11328 23.457C2.86328 23.457 3.29688 23.6797 3.41406 24.125C3.56641 26.1523 4.1875 27.6289 5.27734 28.5547C6.37891 29.4805 7.91406 29.9434 9.88281 29.9434C12.1445 29.9434 13.6621 29.2051 14.4355 27.7285C14.7051 27.2129 14.8398 26.6094 14.8398 25.918C14.8398 25.2148 14.6523 24.5879 14.2773 24.0371C13.9023 23.4863 13.4043 22.9766 12.7832 22.5078C11.834 21.8047 10.5742 21.125 9.00391 20.4688C7.44531 19.8125 6.22656 19.2383 5.34766 18.7461C4.48047 18.2539 3.71289 17.6797 3.04492 17.0234C1.5918 15.5938 0.865234 13.8301 0.865234 11.7324C0.865234 9.58789 1.78516 7.87109 3.625 6.58203C5.39453 5.33984 7.67969 4.71875 10.4805 4.71875C14.0312 4.71875 16.3516 5.45117 17.4414 6.91602C17.8398 7.44336 18.0391 8.13477 18.0391 8.99023C18.0391 9.8457 17.957 10.5898 17.793 11.2227C17.6406 11.8555 17.4883 12.2656 17.3359 12.4531C17.0781 12.7695 16.6328 12.9277 16 12.9277C15.3789 12.9277 15.0684 12.7754 15.0684 12.4707ZM29.1836 20.0117L29.166 24.6348C29.166 26.5684 29.2656 27.7344 29.4648 28.1328C29.6641 28.5195 29.8984 28.7539 30.168 28.8359C30.4375 28.9062 30.7832 28.9414 31.2051 28.9414C31.627 28.9414 32.0078 28.9121 32.3477 28.8535C32.6992 28.7832 33.0273 28.6953 33.332 28.5898C33.6367 28.4844 33.9297 28.3672 34.2109 28.2383L35.0723 27.8691C35.2715 27.7988 35.4941 28.0039 35.7402 28.4844C35.8105 28.6133 35.8457 28.7656 35.8457 28.9414C35.8457 29.1055 35.7754 29.3223 35.6348 29.5918C35.4941 29.8613 35.2188 30.1719 34.8086 30.5234C34.4102 30.8633 33.9414 31.168 33.4023 31.4375C32.2305 32.0352 31.1758 32.334 30.2383 32.334C29.3125 32.334 28.5566 32.2812 27.9707 32.1758C27.3848 32.0703 26.8867 31.8594 26.4766 31.543C25.6328 30.8867 25.2109 29.6855 25.2109 27.9395V14.1055H23.4707C23.1074 14.1055 22.8438 13.9883 22.6797 13.7539C22.3984 13.3906 22.2578 13.0859 22.2578 12.8398C22.2578 12.4297 22.3574 12.2012 22.5566 12.1543C24.4199 11.8379 25.7383 10.4551 26.5117 8.00586C26.7344 7.26758 26.9102 6.39453 27.0391 5.38672C27.6016 5.29297 28.0234 5.24609 28.3047 5.24609C28.5977 5.24609 28.8496 5.39258 29.0605 5.68555C29.2715 5.97852 29.3711 6.31836 29.3594 6.70508C29.3594 7.0918 29.3535 7.45508 29.3418 7.79492C29.3301 8.13477 29.3184 8.50391 29.3066 8.90234L29.2363 11.3633H35.3184C35.4707 11.6328 35.5469 11.9199 35.5469 12.2246V12.7695C35.5469 13.2617 35.2832 13.666 34.7559 13.9824C34.2285 14.2871 33.6426 14.4395 32.998 14.4395C32.3652 14.4395 31.9082 14.4336 31.627 14.4219C31.3574 14.3984 31.0938 14.375 30.8359 14.3516L30.0625 14.2461C29.793 14.2227 29.5059 14.1992 29.2012 14.1758V14.3691L29.1836 20.0117ZM40.2402 16.3555C40.2402 15.6875 40.1875 15.1543 40.082 14.7559C39.9883 14.3457 39.7891 14.1406 39.4844 14.1406C39.2617 14.1406 39.0859 14.1641 38.957 14.2109L38.5352 14.3867C38.4531 14.4102 38.3535 14.3633 38.2363 14.2461C38.0137 14 37.9023 13.7773 37.9023 13.5781C37.9023 13.3672 37.9668 13.1504 38.0957 12.9277C38.2363 12.6934 38.4414 12.4297 38.7109 12.1367C38.9922 11.8437 39.3086 11.5859 39.6602 11.3633C40.457 10.8359 41.1777 10.5723 41.8223 10.5723C42.4668 10.5723 42.9238 10.6836 43.1934 10.9062C43.4629 11.1289 43.668 11.4219 43.8086 11.7852C44.043 12.3711 44.1602 13.2559 44.1602 14.4395V25.4434C44.1602 27.4238 44.7578 28.5312 45.9531 28.7656C46.3164 28.8359 46.7441 28.8711 47.2363 28.8711C47.7402 28.8711 48.2734 28.8066 48.8359 28.6777C49.4102 28.5488 49.9551 28.3789 50.4707 28.168C51.4668 27.7578 52.3457 27.2363 53.1074 26.6035V16.3555C53.1074 15.2422 52.9082 14.5566 52.5098 14.2988C52.3457 14.1934 52.1289 14.1406 51.8594 14.1406C51.5898 14.1406 51.373 14.1816 51.209 14.2637C51.0566 14.3457 50.9277 14.4043 50.8223 14.4395C50.7285 14.4746 50.6465 14.4746 50.5762 14.4395C50.5059 14.3926 50.4297 14.3281 50.3477 14.2461C50.1719 14.0469 50.084 13.8477 50.084 13.6484C50.084 13.4492 50.1543 13.2383 50.2949 13.0156C50.4473 12.7812 50.6875 12.5176 51.0156 12.2246C51.3438 11.9199 51.7188 11.6445 52.1406 11.3984C53.0898 10.8477 54.0391 10.5723 54.9883 10.5723C56.1367 10.5723 56.793 11.3867 56.957 13.0156C57.0039 13.4727 57.0273 13.9473 57.0273 14.4395V24.8457C57.0273 26.6504 57.0977 27.7754 57.2383 28.2207C57.3789 28.666 57.5488 28.959 57.748 29.0996C57.9473 29.2285 58.1934 29.293 58.4863 29.293C58.7793 29.293 59.0195 29.2461 59.207 29.1523L59.7344 28.9238C59.8867 28.8887 60.0215 28.959 60.1387 29.1348C60.3848 29.498 60.4199 29.8262 60.2441 30.1191C60.0684 30.4121 59.793 30.6934 59.418 30.9629C59.0547 31.2324 58.6445 31.4668 58.1875 31.666C56.1602 32.5566 54.7188 32.5391 53.8633 31.6133C53.418 31.1328 53.166 30.3711 53.1074 29.3281C51.3848 30.6523 49.6211 31.5664 47.8164 32.0703C47.1602 32.2461 46.4688 32.334 45.7422 32.334C45.0273 32.334 44.3242 32.2344 43.6328 32.0352C42.9531 31.8359 42.3613 31.5137 41.8574 31.0684C40.7793 30.1191 40.2402 28.6543 40.2402 26.6738V16.3555ZM77.084 29.8027C75.2676 31.502 73.2695 32.3516 71.0898 32.3516C68.6875 32.3516 66.7305 31.5312 65.2188 29.8906C63.5781 28.0859 62.7578 25.5957 62.7578 22.4199C62.7578 18.8457 63.8945 15.9395 66.168 13.7012C68.2891 11.6152 70.7969 10.5723 73.6914 10.5723C74.8516 10.5723 75.9648 10.7656 77.0312 11.1523V6.07227C77.0312 5.25195 76.9492 4.73047 76.7852 4.50781C76.5156 4.13281 76.0762 3.94531 75.4668 3.94531C75.209 3.94531 74.9512 3.97461 74.6934 4.0332C74.4473 4.08008 74.2715 4.08008 74.166 4.0332C74.0723 3.97461 73.9961 3.89844 73.9375 3.80469C73.7031 3.41797 73.9961 2.92578 74.8164 2.32812C76.1055 1.37891 77.377 0.904297 78.6309 0.904297C79.9551 0.904297 80.7109 1.625 80.8984 3.06641C80.9453 3.5 80.9688 3.95703 80.9688 4.4375V24.8457C80.9688 26.6504 81.0391 27.7754 81.1797 28.2207C81.3203 28.666 81.4844 28.959 81.6719 29.0996C81.8711 29.2285 82.1172 29.293 82.4102 29.293C82.7031 29.293 82.9434 29.2461 83.1309 29.1523L83.6582 28.9238C83.8105 28.8887 83.9453 28.959 84.0625 29.1348C84.3086 29.498 84.3438 29.8262 84.168 30.1191C83.9922 30.4121 83.7285 30.6934 83.377 30.9629C83.0254 31.2324 82.6328 31.4668 82.1992 31.666C80.3008 32.5215 78.8828 32.5391 77.9453 31.7188C77.4883 31.3203 77.2012 30.6816 77.084 29.8027ZM77.0312 14.7207C75.8828 13.8418 74.5469 13.4023 73.0234 13.4023C71.1953 13.4023 69.7129 14.0762 68.5762 15.4238C67.3574 16.8652 66.748 18.8281 66.748 21.3125C66.748 25.2617 67.873 27.6992 70.123 28.625C70.8262 28.9062 71.5059 29.0469 72.1621 29.0469C72.8301 29.0469 73.3867 28.9941 73.832 28.8887C74.2773 28.7832 74.6934 28.6426 75.0801 28.4668C75.8535 28.1152 76.5039 27.6875 77.0312 27.1836V14.7207ZM87.0508 22.543C87.0508 21.125 87.1973 19.8652 87.4902 18.7637C87.7832 17.6621 88.1758 16.6777 88.668 15.8105C89.1719 14.9316 89.7578 14.1641 90.4258 13.5078C91.1055 12.8516 91.832 12.3066 92.6055 11.873C94.1289 11.0059 95.6289 10.5723 97.1055 10.5723C98.582 10.5723 99.7656 10.8359 100.656 11.3633C101.547 11.8789 102.273 12.5703 102.836 13.4375C103.879 15.0898 104.4 17.2871 104.4 20.0293C104.4 21.0488 103.973 21.5703 103.117 21.5938L90.8477 21.8574C90.918 24.4004 91.5742 26.2812 92.8164 27.5C93.8711 28.5312 95.2363 29.0469 96.9121 29.0469C99.4082 29.0469 101.436 28.5254 102.994 27.4824C103.1 27.4824 103.229 27.5703 103.381 27.7461C103.674 28.0977 103.82 28.4023 103.82 28.6602C103.82 29.2227 103.117 29.9434 101.711 30.8223C100.094 31.8301 98.207 32.334 96.0508 32.334C93.2383 32.334 91.0293 31.4375 89.4238 29.6445C87.8418 27.8867 87.0508 25.5195 87.0508 22.543ZM90.9531 19.5898C94.3281 19.4258 97.416 19.209 100.217 18.9395C100.346 15.2129 99.0566 13.3496 96.3496 13.3496C94.8379 13.3496 93.6016 13.9355 92.6406 15.1074C91.7617 16.1855 91.1992 17.6797 90.9531 19.5898ZM117.777 32.0879C117.543 32.0293 117.168 32 116.652 32H111.045C109.92 32 109.199 31.8008 108.883 31.4023C108.754 31.25 108.689 31.0742 108.689 30.875C108.689 30.3828 108.783 30.0195 108.971 29.7852C109.252 29.8789 109.568 29.9258 109.92 29.9258C110.283 29.9258 110.553 29.7793 110.729 29.4863C110.916 29.1934 111.004 28.6484 110.992 27.8516V16.3555C110.992 15.2539 110.787 14.5684 110.377 14.2988C110.213 14.1934 109.996 14.1406 109.727 14.1406C109.457 14.1406 109.24 14.1816 109.076 14.2637C108.924 14.3457 108.795 14.4043 108.689 14.4395C108.596 14.4746 108.514 14.4746 108.443 14.4395C108.373 14.3926 108.303 14.3281 108.232 14.2461C108.057 14.0586 107.969 13.8652 107.969 13.666C107.969 13.4551 108.039 13.2383 108.18 13.0156C108.332 12.7812 108.572 12.5176 108.9 12.2246C109.229 11.9199 109.604 11.6445 110.025 11.3984C110.975 10.8477 111.924 10.5723 112.873 10.5723C113.963 10.5723 114.607 11.293 114.807 12.7344C114.865 13.1562 114.9 13.5898 114.912 14.0352C116.658 12.5703 118.557 11.5273 120.607 10.9062C121.346 10.6836 122.09 10.5723 122.84 10.5723C123.602 10.5723 124.322 10.6719 125.002 10.8711C125.693 11.0703 126.291 11.3926 126.795 11.8379C127.861 12.7754 128.395 14.2402 128.395 16.2324V28.1504C128.43 29.0645 128.77 29.627 129.414 29.8379C129.59 29.8965 129.807 29.9492 130.064 29.9961C130.322 30.043 130.551 30.1016 130.75 30.1719C130.961 30.2305 131.125 30.3008 131.242 30.3828C131.441 30.5352 131.541 30.7812 131.541 31.1211C131.541 31.5312 131.447 31.8535 131.26 32.0879C131.025 32.0293 130.65 32 130.135 32H124.527C123.402 32 122.682 31.8008 122.365 31.4023C122.236 31.25 122.172 31.0742 122.172 30.875C122.172 30.3828 122.266 30.0195 122.453 29.7852C122.734 29.8789 122.992 29.9258 123.227 29.9258C123.473 29.9258 123.678 29.8965 123.842 29.8379C124.006 29.7676 124.135 29.6562 124.229 29.5039C124.393 29.2227 124.475 28.6719 124.475 27.8516V17.4805C124.475 15.4883 123.883 14.375 122.699 14.1406C122.336 14.0703 121.879 14.0352 121.328 14.0352C120.789 14.0352 120.191 14.1172 119.535 14.2812C118.879 14.4453 118.264 14.6562 117.689 14.9141C116.588 15.4062 115.662 16.0273 114.912 16.7773V28.1504C114.947 29.0645 115.281 29.627 115.914 29.8379C116.102 29.8965 116.318 29.9492 116.564 29.9961C116.822 30.043 117.057 30.1016 117.268 30.1719C117.479 30.2305 117.643 30.3008 117.76 30.3828C117.959 30.5352 118.059 30.7812 118.059 31.1211C118.059 31.5312 117.965 31.8535 117.777 32.0879ZM140.242 20.0117L140.225 24.6348C140.225 26.5684 140.324 27.7344 140.523 28.1328C140.723 28.5195 140.957 28.7539 141.227 28.8359C141.496 28.9062 141.842 28.9414 142.264 28.9414C142.686 28.9414 143.066 28.9121 143.406 28.8535C143.758 28.7832 144.086 28.6953 144.391 28.5898C144.695 28.4844 144.988 28.3672 145.27 28.2383L146.131 27.8691C146.33 27.7988 146.553 28.0039 146.799 28.4844C146.869 28.6133 146.904 28.7656 146.904 28.9414C146.904 29.1055 146.834 29.3223 146.693 29.5918C146.553 29.8613 146.277 30.1719 145.867 30.5234C145.469 30.8633 145 31.168 144.461 31.4375C143.289 32.0352 142.234 32.334 141.297 32.334C140.371 32.334 139.615 32.2812 139.029 32.1758C138.443 32.0703 137.945 31.8594 137.535 31.543C136.691 30.8867 136.27 29.6855 136.27 27.9395V14.1055H134.529C134.166 14.1055 133.902 13.9883 133.738 13.7539C133.457 13.3906 133.316 13.0859 133.316 12.8398C133.316 12.4297 133.416 12.2012 133.615 12.1543C135.479 11.8379 136.797 10.4551 137.57 8.00586C137.793 7.26758 137.969 6.39453 138.098 5.38672C138.66 5.29297 139.082 5.24609 139.363 5.24609C139.656 5.24609 139.908 5.39258 140.119 5.68555C140.33 5.97852 140.43 6.31836 140.418 6.70508C140.418 7.0918 140.412 7.45508 140.4 7.79492C140.389 8.13477 140.377 8.50391 140.365 8.90234L140.295 11.3633H146.377C146.529 11.6328 146.605 11.9199 146.605 12.2246V12.7695C146.605 13.2617 146.342 13.666 145.814 13.9824C145.287 14.2871 144.701 14.4395 144.057 14.4395C143.424 14.4395 142.967 14.4336 142.686 14.4219C142.416 14.3984 142.152 14.375 141.895 14.3516L141.121 14.2461C140.852 14.2227 140.564 14.1992 140.26 14.1758V14.3691L140.242 20.0117Z" fill="white"/>
<path d="M169.158 24.1777C169.475 23.9082 169.809 23.7734 170.16 23.7734C170.699 23.7734 171.01 23.8496 171.092 24.002C171.549 24.916 171.777 26.4277 171.777 28.5371C171.777 30.002 171.613 31.0625 171.285 31.7188C171.18 31.9062 171.068 32 170.951 32H151.545C150.15 32 149.453 31.584 149.453 30.752C149.453 30.3066 149.547 29.9668 149.734 29.7324C150.133 29.8496 150.52 29.9082 150.895 29.9082C151.27 29.9082 151.592 29.8789 151.861 29.8203C152.131 29.7617 152.383 29.6387 152.617 29.4512C153.18 29.0176 153.461 28.2852 153.461 27.2539V9.44727C153.461 8.42773 153.051 7.77734 152.23 7.49609C151.996 7.41406 151.75 7.34375 151.492 7.28516C151.246 7.21484 151.006 7.15039 150.771 7.0918C150.549 7.02148 150.35 6.94531 150.174 6.86328C149.775 6.65234 149.576 6.36523 149.576 6.00195C149.576 5.52148 149.67 5.17578 149.857 4.96484C150.068 5.02344 150.279 5.05273 150.49 5.05273H168.473C169.551 5.05273 170.225 5.15234 170.494 5.35156C170.986 5.70312 171.232 6.47656 171.232 7.67188C171.232 8.82031 171.133 9.75781 170.934 10.4844C170.746 11.2109 170.611 11.6445 170.529 11.7852C170.412 11.9961 170.184 12.1016 169.844 12.1016C169.352 12.1016 169.012 12.043 168.824 11.9258C168.648 11.7969 168.555 11.7031 168.543 11.6445C168.391 9.96875 168.127 8.90234 167.752 8.44531C167.377 7.97656 166.932 7.66016 166.416 7.49609C165.912 7.32031 165.25 7.23242 164.43 7.23242H160.51C159.268 7.23242 158.506 7.35547 158.225 7.60156C157.955 7.84766 157.785 8.13477 157.715 8.46289C157.645 8.7793 157.609 9.18945 157.609 9.69336V17.1816L158.646 17.1992C161.236 17.1992 163.639 16.9707 165.854 16.5137C166.018 16.5957 166.164 16.8301 166.293 17.2168C166.422 17.5918 166.486 17.9668 166.486 18.3418C166.486 18.9746 166.381 19.5254 166.17 19.9941C165.396 20.0645 164.506 20.0996 163.498 20.0996C162.49 20.0996 160.527 19.9355 157.609 19.6074V27.5352C157.609 28.4141 157.844 29.0059 158.312 29.3105C158.711 29.5684 159.426 29.6973 160.457 29.6973L163.111 29.627C165.678 29.5332 167.348 29.1758 168.121 28.5547C168.555 28.2031 168.842 27.7402 168.982 27.166C169.123 26.5918 169.193 26.0176 169.193 25.4434C169.193 24.8574 169.182 24.4355 169.158 24.1777ZM181.674 31.1387C177.76 20.9199 175.744 15.6465 175.627 15.3184C175.51 14.9785 175.387 14.668 175.258 14.3867C174.965 13.7305 174.701 13.4023 174.467 13.4023C174.314 13.4023 174.145 13.4199 173.957 13.4551C173.77 13.4902 173.617 13.4258 173.5 13.2617C173.383 13.0977 173.324 12.8926 173.324 12.6465C173.324 12.4004 173.436 12.1484 173.658 11.8906C173.893 11.6328 174.18 11.4102 174.52 11.2227C175.258 10.7891 175.844 10.5723 176.277 10.5723C176.711 10.5723 177.057 10.584 177.314 10.6074C177.572 10.6309 177.812 10.7187 178.035 10.8711C178.504 11.1758 178.896 11.832 179.213 12.8398L184.363 28.2031C185.184 26.5508 185.793 25.2852 186.191 24.4062L187.281 21.8398C188.594 18.6055 189.25 16.332 189.25 15.0195V14.791C189.25 14.2051 189.115 13.7422 188.846 13.4023C188.588 13.0625 188.125 12.8574 187.457 12.7871C187.34 12.5996 187.281 12.4062 187.281 12.207C187.281 11.9961 187.393 11.791 187.615 11.5918C187.85 11.3809 188.143 11.1992 188.494 11.0469C189.221 10.7305 190.012 10.5723 190.867 10.5723C191.734 10.5723 192.402 10.707 192.871 10.9766C193.352 11.2344 193.592 11.75 193.592 12.5234C193.592 14.1641 192.479 17.4277 190.252 22.3145L188.652 25.6719C187.551 27.8984 186.719 29.4102 186.156 30.207C185.148 31.625 184.264 32.334 183.502 32.334C182.951 32.334 182.459 32.1172 182.025 31.6836C181.873 31.5312 181.756 31.3496 181.674 31.1387ZM196.844 22.543C196.844 21.125 196.99 19.8652 197.283 18.7637C197.576 17.6621 197.969 16.6777 198.461 15.8105C198.965 14.9316 199.551 14.1641 200.219 13.5078C200.898 12.8516 201.625 12.3066 202.398 11.873C203.922 11.0059 205.422 10.5723 206.898 10.5723C208.375 10.5723 209.559 10.8359 210.449 11.3633C211.34 11.8789 212.066 12.5703 212.629 13.4375C213.672 15.0898 214.193 17.2871 214.193 20.0293C214.193 21.0488 213.766 21.5703 212.91 21.5938L200.641 21.8574C200.711 24.4004 201.367 26.2812 202.609 27.5C203.664 28.5312 205.029 29.0469 206.705 29.0469C209.201 29.0469 211.229 28.5254 212.787 27.4824C212.893 27.4824 213.021 27.5703 213.174 27.7461C213.467 28.0977 213.613 28.4023 213.613 28.6602C213.613 29.2227 212.91 29.9434 211.504 30.8223C209.887 31.8301 208 32.334 205.844 32.334C203.031 32.334 200.822 31.4375 199.217 29.6445C197.635 27.8867 196.844 25.5195 196.844 22.543ZM200.746 19.5898C204.121 19.4258 207.209 19.209 210.01 18.9395C210.139 15.2129 208.85 13.3496 206.143 13.3496C204.631 13.3496 203.395 13.9355 202.434 15.1074C201.555 16.1855 200.992 17.6797 200.746 19.5898ZM227.57 32.0879C227.336 32.0293 226.961 32 226.445 32H220.838C219.713 32 218.992 31.8008 218.676 31.4023C218.547 31.25 218.482 31.0742 218.482 30.875C218.482 30.3828 218.576 30.0195 218.764 29.7852C219.045 29.8789 219.361 29.9258 219.713 29.9258C220.076 29.9258 220.346 29.7793 220.521 29.4863C220.709 29.1934 220.797 28.6484 220.785 27.8516V16.3555C220.785 15.2539 220.58 14.5684 220.17 14.2988C220.006 14.1934 219.789 14.1406 219.52 14.1406C219.25 14.1406 219.033 14.1816 218.869 14.2637C218.717 14.3457 218.588 14.4043 218.482 14.4395C218.389 14.4746 218.307 14.4746 218.236 14.4395C218.166 14.3926 218.096 14.3281 218.025 14.2461C217.85 14.0586 217.762 13.8652 217.762 13.666C217.762 13.4551 217.832 13.2383 217.973 13.0156C218.125 12.7812 218.365 12.5176 218.693 12.2246C219.021 11.9199 219.396 11.6445 219.818 11.3984C220.768 10.8477 221.717 10.5723 222.666 10.5723C223.756 10.5723 224.4 11.293 224.6 12.7344C224.658 13.1562 224.693 13.5898 224.705 14.0352C226.451 12.5703 228.35 11.5273 230.4 10.9062C231.139 10.6836 231.883 10.5723 232.633 10.5723C233.395 10.5723 234.115 10.6719 234.795 10.8711C235.486 11.0703 236.084 11.3926 236.588 11.8379C237.654 12.7754 238.188 14.2402 238.188 16.2324V28.1504C238.223 29.0645 238.562 29.627 239.207 29.8379C239.383 29.8965 239.6 29.9492 239.857 29.9961C240.115 30.043 240.344 30.1016 240.543 30.1719C240.754 30.2305 240.918 30.3008 241.035 30.3828C241.234 30.5352 241.334 30.7812 241.334 31.1211C241.334 31.5312 241.24 31.8535 241.053 32.0879C240.818 32.0293 240.443 32 239.928 32H234.32C233.195 32 232.475 31.8008 232.158 31.4023C232.029 31.25 231.965 31.0742 231.965 30.875C231.965 30.3828 232.059 30.0195 232.246 29.7852C232.527 29.8789 232.785 29.9258 233.02 29.9258C233.266 29.9258 233.471 29.8965 233.635 29.8379C233.799 29.7676 233.928 29.6562 234.021 29.5039C234.186 29.2227 234.268 28.6719 234.268 27.8516V17.4805C234.268 15.4883 233.676 14.375 232.492 14.1406C232.129 14.0703 231.672 14.0352 231.121 14.0352C230.582 14.0352 229.984 14.1172 229.328 14.2812C228.672 14.4453 228.057 14.6562 227.482 14.9141C226.381 15.4062 225.455 16.0273 224.705 16.7773V28.1504C224.74 29.0645 225.074 29.627 225.707 29.8379C225.895 29.8965 226.111 29.9492 226.357 29.9961C226.615 30.043 226.85 30.1016 227.061 30.1719C227.271 30.2305 227.436 30.3008 227.553 30.3828C227.752 30.5352 227.852 30.7812 227.852 31.1211C227.852 31.5312 227.758 31.8535 227.57 32.0879ZM250.035 20.0117L250.018 24.6348C250.018 26.5684 250.117 27.7344 250.316 28.1328C250.516 28.5195 250.75 28.7539 251.02 28.8359C251.289 28.9062 251.635 28.9414 252.057 28.9414C252.479 28.9414 252.859 28.9121 253.199 28.8535C253.551 28.7832 253.879 28.6953 254.184 28.5898C254.488 28.4844 254.781 28.3672 255.062 28.2383L255.924 27.8691C256.123 27.7988 256.346 28.0039 256.592 28.4844C256.662 28.6133 256.697 28.7656 256.697 28.9414C256.697 29.1055 256.627 29.3223 256.486 29.5918C256.346 29.8613 256.07 30.1719 255.66 30.5234C255.262 30.8633 254.793 31.168 254.254 31.4375C253.082 32.0352 252.027 32.334 251.09 32.334C250.164 32.334 249.408 32.2812 248.822 32.1758C248.236 32.0703 247.738 31.8594 247.328 31.543C246.484 30.8867 246.062 29.6855 246.062 27.9395V14.1055H244.322C243.959 14.1055 243.695 13.9883 243.531 13.7539C243.25 13.3906 243.109 13.0859 243.109 12.8398C243.109 12.4297 243.209 12.2012 243.408 12.1543C245.271 11.8379 246.59 10.4551 247.363 8.00586C247.586 7.26758 247.762 6.39453 247.891 5.38672C248.453 5.29297 248.875 5.24609 249.156 5.24609C249.449 5.24609 249.701 5.39258 249.912 5.68555C250.123 5.97852 250.223 6.31836 250.211 6.70508C250.211 7.0918 250.205 7.45508 250.193 7.79492C250.182 8.13477 250.17 8.50391 250.158 8.90234L250.088 11.3633H256.17C256.322 11.6328 256.398 11.9199 256.398 12.2246V12.7695C256.398 13.2617 256.135 13.666 255.607 13.9824C255.08 14.2871 254.494 14.4395 253.85 14.4395C253.217 14.4395 252.76 14.4336 252.479 14.4219C252.209 14.3984 251.945 14.375 251.688 14.3516L250.914 14.2461C250.645 14.2227 250.357 14.1992 250.053 14.1758V14.3691L250.035 20.0117Z" fill="#00CEC9"/>
</svg>
