<svg width="104" height="103" viewBox="0 0 104 103" fill="none" xmlns="http://www.w3.org/2000/svg">
<path fill-rule="evenodd" clip-rule="evenodd" d="M103.21 51.295C103.21 79.6239 80.1051 102.59 51.605 102.59C23.1048 102.59 0 79.6239 0 51.295C0 22.9661 23.1048 0 51.605 0C80.1051 0 103.21 22.9661 103.21 51.295ZM83.7291 35.1666C81.4998 36.1514 79.1014 36.8144 76.5844 37.1132C79.153 35.5833 81.1256 33.1609 82.0545 30.273C79.651 31.6901 76.9895 32.7198 74.1564 33.2751C71.8858 30.8719 68.6527 29.3677 65.0752 29.3677C58.204 29.3677 52.6332 34.9062 52.6332 41.7323C52.6332 42.7031 52.7429 43.6469 52.9558 44.5523C42.6167 44.0355 33.4491 39.115 27.3132 31.6323C26.2437 33.4597 25.6283 35.5833 25.6283 37.848C25.6283 42.1376 27.8254 45.9257 31.1643 48.1404C29.1246 48.0788 27.2074 47.521 25.5303 46.5938C25.5277 46.6451 25.5277 46.6977 25.5277 46.7515C25.5277 52.7415 29.8161 57.7402 35.5081 58.8751C34.4631 59.1572 33.3639 59.3098 32.2286 59.3098C31.4274 59.3098 30.6482 59.2303 29.8896 59.0867C31.4739 63.9995 36.0654 67.5747 41.5123 67.6748C37.2536 70.9923 31.8893 72.9684 26.0605 72.9684C25.0568 72.9684 24.0673 72.9107 23.0932 72.7966C28.5995 76.3039 35.1366 78.3518 42.1626 78.3518C65.0455 78.3518 77.5584 59.5073 77.5584 43.1686C77.5584 42.6326 77.5481 42.1004 77.5223 41.5695C79.9516 39.8242 82.0636 37.6467 83.7291 35.1666Z" fill="#00CEC9"/>
</svg>
