<svg width="84" height="84" viewBox="0 0 84 84" fill="none" xmlns="http://www.w3.org/2000/svg">
<g clip-path="url(#clip0)">
<path fill-rule="evenodd" clip-rule="evenodd" d="M84 41.7431C84 64.7968 65.3106 83.4862 42.2569 83.4862C19.2032 83.4862 0.513763 64.7968 0.513763 41.7431C0.513763 18.6894 19.2032 0 42.2569 0C65.3106 0 84 18.6894 84 41.7431ZM68.242 28.618C66.4387 29.4195 64.4987 29.959 62.4626 30.2022C64.5404 28.9572 66.136 26.9859 66.8874 24.6357C64.9432 25.7889 62.7903 26.6269 60.4986 27.0788C58.6619 25.1231 56.0467 23.899 53.1529 23.899C47.5948 23.899 43.0886 28.4062 43.0886 33.9612C43.0886 34.7511 43.1773 35.5192 43.3495 36.256C34.9863 35.8354 27.5706 31.8312 22.6074 25.7419C21.7422 27.229 21.2444 28.9572 21.2444 30.8002C21.2444 34.2909 23.0217 37.3737 25.7224 39.1759C24.0725 39.1258 22.5218 38.6719 21.1651 37.9174C21.163 37.9591 21.163 38.0019 21.163 38.0457C21.163 42.9203 24.6319 46.9881 29.2362 47.9117C28.3909 48.1413 27.5017 48.2655 26.5834 48.2655C25.9353 48.2655 25.305 48.2008 24.6914 48.0839C25.9729 52.0818 29.687 54.9913 34.093 55.0727C30.6481 57.7725 26.3089 59.3806 21.594 59.3806C20.7821 59.3806 19.9817 59.3337 19.1938 59.2408C23.6478 62.095 28.9356 63.7616 34.6189 63.7616C53.1289 63.7616 63.2505 48.4262 63.2505 35.13C63.2505 34.6937 63.2422 34.2607 63.2213 33.8286C65.1864 32.4083 66.8947 30.6363 68.242 28.618Z" fill="white"/>
</g>
<defs>
<clipPath id="clip0">
<rect x="0.513763" width="83.4862" height="83.4862" fill="white"/>
</clipPath>
</defs>
</svg>
